# xmcd
#
# Track frame offsets: 
#        150
#        18876
#        34766
#        53274
#        73000
#        89176
#        104800
#        123767
#        139892
#        155352
#        171249
#
# Disc length: 2837 seconds
#
# Revision: 0
# Processed by: cddbd v1.5.2PL0 Copyright (c) Steve Scherf et al.
# Submitted via: ExactAudioCopyFreeDBPlugin 1.0
#
DISCID=920b130b
DTITLE=6LACK - Free 6LACK
DYEAR=2016
DGENRE=R&B
TTITLE0=Never Know
TTITLE1=Rules
TTITLE2=PRBLMS
TTITLE3=Free
TTITLE4=Learn Ya
TTITLE5=MTFU
TTITLE6=Luving U
TTITLE7=Gettin' Old
TTITLE8=Worst Luck
TTITLE9=Ex Calling
TTITLE10=Alone - EA6
EXTD=
EXTT0=
EXTT1=
EXTT2=
EXTT3=
EXTT4=
EXTT5=
EXTT6=
EXTT7=
EXTT8=
EXTT9=
EXTT10=
PLAYORDER=
